# xmcd
#
# Track frame offsets:
#	150
#	18364
#	36089
#	59457
#	81921
#
# Disc length: 1393 seconds
#
# Revision: 0
# Processed by: cddbd v1.5.2PL0 Copyright (c) Steve Scherf et al.
# Submitted via: EasyCDDAExtractor 10.0.6.1
#
DISCID=37056f05
DTITLE=Alta Mira - the Fables and Fabrications EP
DYEAR=2007
DGENRE=Progressive Rock
TTITLE0=Berlin Waltz
TTITLE1=Cloud 8½
TTITLE2=Apnea
TTITLE3=Sifting Through the Dust
TTITLE4=Fables and Fabrications
EXTD=
EXTT0=
EXTT1=
EXTT2=
EXTT3=
EXTT4=
PLAYORDER=
